<svg width="216" height="23" viewBox="0 0 216 23" fill="none" xmlns="http://www.w3.org/2000/svg">
<path d="M15.0584 18.04L0.638375 12.58V10.116L15.0584 4.684V7.344L3.94238 11.348L15.0584 15.38V18.04ZM26.3253 20.336C24.8133 20.336 23.4973 20.0467 22.3773 19.468C21.2573 18.8893 20.3893 18.0587 19.7733 16.976C19.1573 15.8933 18.8493 14.5773 18.8493 13.028H21.7893C21.7893 14.5587 22.1906 15.744 22.9933 16.584C23.796 17.4053 24.8973 17.816 26.2973 17.816C27.492 17.816 28.4533 17.5453 29.1813 17.004C29.9093 16.444 30.2733 15.6693 30.2733 14.68C30.2733 14.008 30.068 13.4667 29.6573 13.056C29.2653 12.6453 28.7333 12.3093 28.0613 12.048C27.408 11.7867 26.6893 11.5533 25.9053 11.348C25.1213 11.1427 24.328 10.9187 23.5253 10.676C22.7413 10.4147 22.0133 10.088 21.3413 9.696C20.688 9.304 20.156 8.78133 19.7453 8.128C19.3533 7.47467 19.1573 6.644 19.1573 5.636C19.1573 4.572 19.4373 3.62933 19.9973 2.808C20.576 1.968 21.3693 1.31467 22.3773 0.848C23.404 0.362666 24.608 0.119999 25.9893 0.119999C27.3333 0.119999 28.5373 0.371999 29.6013 0.875999C30.6653 1.36133 31.5146 2.06133 32.1493 2.976C32.8026 3.872 33.1386 4.95467 33.1573 6.224H30.1893C30.1706 5.47733 29.9653 4.84267 29.5733 4.32C29.2 3.77867 28.696 3.368 28.0613 3.088C27.4453 2.78933 26.7546 2.64 25.9893 2.64C24.888 2.64 23.992 2.90133 23.3013 3.424C22.6106 3.94667 22.2653 4.656 22.2653 5.552C22.2653 6.18667 22.4613 6.69067 22.8533 7.064C23.264 7.43733 23.796 7.74533 24.4493 7.988C25.1213 8.212 25.8493 8.42667 26.6333 8.632C27.436 8.81867 28.2293 9.04267 29.0133 9.304C29.7973 9.54667 30.516 9.88267 31.1693 10.312C31.8413 10.7227 32.3733 11.2827 32.7653 11.992C33.176 12.6827 33.3813 13.5693 33.3813 14.652C33.3813 15.8093 33.0733 16.8173 32.4573 17.676C31.8413 18.516 31.0013 19.1693 29.9373 19.636C28.8733 20.1027 27.6693 20.336 26.3253 20.336ZM42.7723 20V2.976H36.4723V0.456H52.0403V2.976H45.7403V20H42.7723ZM55.6912 20V0.456H69.7192V2.976H58.6592V8.604H66.2752V11.124H58.6592V17.48H69.8312V20H55.6912ZM183.056 22.716L193.892 0.427998H196.832L185.996 22.716H183.056ZM200.819 18.04V15.38L211.935 11.348L200.819 7.344V4.684L215.239 10.116V12.58L200.819 18.04Z" fill="#445D66"/>
<path d="M75.9741 12.86V10.34H81.0701C82.3208 10.34 83.3288 9.99467 84.0941 9.304C84.8595 8.61333 85.2421 7.708 85.2421 6.588C85.2421 5.50533 84.8875 4.63733 84.1781 3.984C83.4688 3.312 82.5261 2.976 81.3501 2.976H75.9741V0.456H81.3501C82.7688 0.456 84.0008 0.708 85.0461 1.212C86.0915 1.716 86.9035 2.42533 87.4821 3.34C88.0608 4.25467 88.3501 5.33733 88.3501 6.588C88.3501 7.83867 88.0515 8.94 87.4541 9.892C86.8568 10.8253 86.0075 11.5533 84.9061 12.076C83.8235 12.5987 82.5541 12.86 81.0981 12.86H75.9741ZM73.8461 20V0.456H76.8141V20H73.8461ZM103.201 20V0.456H106.169V20H103.201ZM91.6371 20V0.456H94.6051V20H91.6371ZM94.1851 11.124V8.604H103.593V11.124H94.1851ZM111.836 15.072V12.552H122.672V15.072H111.836ZM114.972 0.456H119.228L125.276 20H122.224L118.276 7.064L117.1 2.78L115.924 7.092L111.92 20H108.924L114.972 0.456ZM128.087 20V0.456H131.783L139.931 16.136L139.707 10.088V0.456H142.563V20H138.895L130.691 4.488L130.943 10.34V20H128.087ZM152.038 20V0.456H155.006V20H152.038ZM147.138 0.456H159.878V2.976H147.138V0.456ZM147.138 17.48H159.878V20H147.138V17.48ZM164.957 20V0.456H178.985V2.976H167.925V8.604H175.541V11.124H167.925V17.48H179.097V20H164.957Z" fill="#DA917F"/>
</svg>
